<svg width="173" height="71" viewBox="0 0 173 71" fill="none" xmlns="http://www.w3.org/2000/svg">
<path d="M23.0864 22.7275L16.0115 55.9606L8.9832 57.6363L11.9155 43.7193C11.2329 44.433 10.4261 45.0381 9.49519 45.5345C8.59532 46.031 7.55582 46.2793 6.37667 46.2793C5.56989 46.2793 4.79414 46.1552 4.04942 45.9069C3.33573 45.6276 2.6841 45.1932 2.09453 44.6036C1.50496 44.0141 1.03951 43.2538 0.698176 42.3229C0.356845 41.361 0.18618 40.1819 0.18618 38.7855C0.18618 37.7305 0.294785 36.5979 0.511996 35.3877C0.729206 34.1776 1.05502 32.9674 1.48944 31.7572C1.92386 30.547 2.46689 29.3834 3.11852 28.2663C3.77015 27.1493 4.5459 26.1718 5.44577 25.334C6.34564 24.4652 7.3386 23.7825 8.42466 23.286C9.54174 22.7585 10.7829 22.4947 12.1483 22.4947C12.5206 22.4947 12.9085 22.5258 13.3119 22.5878C13.7153 22.6189 14.0876 22.712 14.429 22.8671C14.8013 23.0223 15.1116 23.255 15.3599 23.5653C15.6391 23.8756 15.8253 24.279 15.9184 24.7755L16.3839 22.7275H23.0864ZM13.5912 25.3805C12.5982 25.3805 11.6983 25.846 10.8915 26.7769C10.0848 27.6768 9.4021 28.7938 8.84356 30.1281C8.28502 31.4314 7.8506 32.8277 7.5403 34.3172C7.23 35.7756 7.07485 37.0478 7.07485 38.1339C7.07485 39.0338 7.15242 39.7319 7.30757 40.2284C7.49375 40.6939 7.69545 41.0507 7.91266 41.2989C8.1609 41.5162 8.40914 41.6558 8.65738 41.7179C8.93665 41.7489 9.18489 41.7644 9.4021 41.7644C10.0227 41.7644 10.6898 41.4851 11.4035 40.9266C12.1172 40.368 12.6603 39.5458 13.0326 38.4597L15.453 26.9631C15.3909 26.6838 15.2202 26.358 14.941 25.9856C14.6927 25.5822 14.2428 25.3805 13.5912 25.3805ZM44.7916 22.7275L41.4404 38.5528C41.3163 39.0803 41.2542 39.5768 41.2542 40.0422C41.2542 40.6939 41.4093 41.1438 41.7196 41.392C42.0299 41.6403 42.5109 41.7644 43.1625 41.7644C44.0624 41.7644 44.8227 41.3765 45.4433 40.6008C46.0949 39.825 46.5914 38.8476 46.9327 37.6684H48.8876C48.236 39.5613 47.4912 41.0817 46.6534 42.2299C45.8466 43.3469 45.0088 44.2158 44.14 44.8364C43.3022 45.4259 42.4799 45.8138 41.6731 46C40.8663 46.1862 40.1526 46.2793 39.532 46.2793C38.1977 46.2793 37.1272 45.9069 36.3204 45.1622C35.5447 44.4175 35.0792 43.3159 34.9241 41.8575C34.3345 42.8194 33.7294 43.5952 33.1088 44.1847C32.5192 44.7433 31.9297 45.1777 31.3401 45.488C30.7505 45.7983 30.1765 46 29.6179 46.0931C29.0594 46.2172 28.5319 46.2793 28.0354 46.2793C26.639 46.2793 25.4599 45.8448 24.498 44.976C23.536 44.0761 23.0551 42.6488 23.0551 40.6939C23.0551 39.8561 23.1792 38.8476 23.4274 37.6684L26.5925 22.7275H33.295L29.9437 38.5528C29.8507 39.0182 29.8041 39.4527 29.8041 39.8561C29.8041 40.3836 29.8972 40.8335 30.0834 41.2059C30.3006 41.5782 30.673 41.7644 31.2005 41.7644C32.1003 41.7644 32.8606 41.3765 33.4812 40.6008C34.1018 39.825 34.5827 38.8476 34.9241 37.6684L38.0891 22.7275H44.7916ZM51.0232 16.537C51.0232 15.513 51.38 14.6441 52.0937 13.9305C52.8074 13.1857 53.6763 12.8134 54.7003 12.8134C55.7243 12.8134 56.5931 13.1857 57.3068 13.9305C58.0515 14.6441 58.4239 15.513 58.4239 16.537C58.4239 17.561 58.0515 18.4298 57.3068 19.1435C56.5931 19.8572 55.7243 20.214 54.7003 20.214C53.6763 20.214 52.8074 19.8572 52.0937 19.1435C51.38 18.4298 51.0232 17.561 51.0232 16.537ZM56.7948 22.7275L53.4435 38.5528C53.3194 39.0803 53.2574 39.5768 53.2574 40.0422C53.2574 40.6939 53.4125 41.1438 53.7228 41.392C54.0331 41.6403 54.5141 41.7644 55.1657 41.7644C56.0656 41.7644 56.9034 41.3765 57.6791 40.6008C58.4549 39.825 59.0134 38.8476 59.3548 37.6684H61.3097C60.658 39.5613 59.8978 41.0817 59.029 42.2299C58.1601 43.3469 57.2758 44.2158 56.3759 44.8364C55.476 45.4259 54.5917 45.8138 53.7228 46C52.885 46.1862 52.1558 46.2793 51.5352 46.2793C50.1388 46.2793 48.9597 45.8448 47.9978 44.976C47.0358 44.0761 46.5549 42.6488 46.5549 40.6939C46.5549 39.8561 46.679 38.8476 46.9272 37.6684L50.0923 22.7275H56.7948ZM71.9965 29.43C72.3688 28.468 72.555 27.5526 72.555 26.6838C72.555 26.1253 72.4464 25.6753 72.2292 25.334C72.043 24.9616 71.7327 24.7755 71.2983 24.7755C70.8018 24.7755 70.3053 25.0082 69.8089 25.4736C69.3124 25.908 68.8469 26.4976 68.4125 27.2423C67.9781 27.956 67.5592 28.7783 67.1558 29.7092C66.7834 30.6401 66.4576 31.6021 66.1783 32.595C65.8991 33.588 65.6819 34.5654 65.5267 35.5274C65.3716 36.4583 65.294 37.3116 65.294 38.0873C65.294 39.5458 65.5577 40.5542 66.0853 41.1128C66.6128 41.6713 67.2799 41.9506 68.0867 41.9506C68.5521 41.9506 69.0331 41.873 69.5296 41.7179C70.0261 41.5627 70.5226 41.361 71.019 41.1128C71.5155 40.8645 71.981 40.6008 72.4154 40.3215C72.8808 40.0112 73.2997 39.7009 73.6721 39.3906C73.4239 40.7249 73.036 41.842 72.5085 42.7418C72.012 43.6107 71.4069 44.3089 70.6932 44.8364C69.9795 45.3639 69.1883 45.7362 68.3194 45.9535C67.4506 46.1707 66.5507 46.2793 65.6198 46.2793C63.4477 46.2793 61.6945 45.7052 60.3602 44.5571C59.057 43.409 58.4053 41.5162 58.4053 38.8786C58.4053 37.9787 58.4984 36.9547 58.6846 35.8066C58.8708 34.6275 59.1656 33.4328 59.5689 32.2227C59.9723 30.9815 60.4843 29.7713 61.1049 28.5921C61.7566 27.382 62.5478 26.327 63.4787 25.4271C64.4096 24.4962 65.4802 23.7515 66.6903 23.1929C67.9315 22.6033 69.3434 22.3086 70.9259 22.3086C71.9499 22.3086 72.7877 22.4327 73.4394 22.6809C74.122 22.9292 74.6495 23.255 75.0219 23.6584C75.4253 24.0618 75.7046 24.5272 75.8597 25.0547C76.0149 25.5512 76.0924 26.0787 76.0924 26.6373C76.0924 27.8164 75.8287 28.6697 75.3012 29.1972C74.8047 29.7247 74.2462 29.9885 73.6256 29.9885C73.036 29.9885 72.493 29.8023 71.9965 29.43ZM99.0781 22.7275L89.7691 29.1972C90.0173 29.1352 90.2655 29.0886 90.5138 29.0576C90.793 29.0266 91.0568 29.0111 91.305 29.0111C93.0427 29.0111 94.3305 29.5541 95.1683 30.6401C96.0061 31.6952 96.425 32.9674 96.425 34.4568C96.425 34.7361 96.4095 35.0309 96.3785 35.3412C96.3474 35.6205 96.3009 35.9152 96.2388 36.2255L95.7268 38.5528C95.6648 38.801 95.6027 39.0493 95.5406 39.2975C95.5096 39.5458 95.4941 39.794 95.4941 40.0422C95.4941 40.5077 95.6182 40.9111 95.8665 41.2524C96.1147 41.5937 96.5957 41.7644 97.3094 41.7644C97.8679 41.7644 98.2403 41.7334 98.4264 41.6713C98.6126 41.6092 98.7833 41.5472 98.9384 41.4851C98.8764 42.3229 98.6747 43.0366 98.3333 43.6262C97.992 44.2158 97.5886 44.7123 97.1232 45.1156C96.6888 45.519 96.2388 45.8138 95.7734 46C95.3079 46.1862 94.92 46.2793 94.6097 46.2793C92.6859 46.2793 91.2275 45.8293 90.2345 44.9295C89.2415 43.9986 88.7451 42.6798 88.7451 40.9731C88.7451 40.2594 88.8382 39.4527 89.0243 38.5528L89.3967 36.7375C89.4588 36.4272 89.5053 36.1324 89.5363 35.8532C89.5674 35.5429 89.5829 35.2636 89.5829 35.0154C89.5829 34.3327 89.4588 33.7897 89.2105 33.3863C88.9623 32.9829 88.5279 32.7812 87.9073 32.7812C87.3797 32.7812 86.8367 32.9364 86.2782 33.2467C85.7196 33.557 85.1146 33.9759 84.4629 34.5034L82.0426 46H75.3401L82.0891 14.3494L88.9778 13.4185L85.4869 29.8023L94.4701 22.7275H99.0781Z" fill="white"/>
<path d="M101.939 46V42.116L104.8 41.5098V22.9235L101.939 22.3173V18.4143H124.655V26.5423H119.635L119.502 23.5298H111.45V29.9147H120.828V34.9923H111.45V41.5098L114.311 42.116V46H101.939ZM126.814 46V42.116L129.675 41.5098V22.9235L126.814 22.3173V18.4143H139.167V22.3173L136.306 22.9235V41.5098L139.167 42.116V46H126.814ZM141.013 46V42.116L143.457 41.6234L150.79 32.5482L143.78 22.8288L141.658 22.3173V18.4143H153.575V22.3173L150.922 22.5636L154.825 28.039L158.88 22.5636L156.36 22.3173V18.4143H167.993V22.3173L165.606 22.8288L158.804 31.7525L166.496 41.6045L169.224 42.116V46H156.947V42.116L159.145 41.8887L154.901 36.0911L150.487 41.8887L152.665 42.116V46H141.013Z" fill="#EC644B"/>
<path d="M43.1903 59.7238H38.6293L38.1225 62.6331H43.4813L43.1528 64.4537H35.5792L37.4749 53.5203H45.0298L44.7013 55.3598H39.3801L38.939 57.8937H43.5188L43.1903 59.7238ZM64.4696 64.4537H62.3299L58.8105 56.8989L57.4967 64.4537H55.2724L57.1682 53.5203H59.3173L62.8367 61.0846L64.1505 53.5203H66.3654L64.4696 64.4537ZM86.556 63.0835C85.7614 64.0095 84.4444 64.5132 82.605 64.5945L82.0607 64.6039C81.1284 64.5914 80.3307 64.3599 79.6675 63.9094C79.0043 63.4589 78.5226 62.8364 78.2222 62.0418C77.9219 61.241 77.825 60.3463 77.9313 59.3577L77.9876 58.8416C78.1816 57.1335 78.7791 55.7852 79.7801 54.7967C80.7875 53.8081 82.0325 53.3326 83.5153 53.3702C84.7228 53.3952 85.6707 53.7237 86.3589 54.3556C87.0534 54.9813 87.4507 55.8697 87.5508 57.0209L85.4111 57.0115C85.2985 55.8353 84.6509 55.2284 83.4684 55.1909C82.63 55.1596 81.9262 55.438 81.3568 56.0261C80.7937 56.608 80.4277 57.4307 80.2588 58.4943L80.1462 59.339C80.1024 59.7457 80.0961 60.1523 80.1274 60.559C80.1774 61.2472 80.3839 61.7853 80.7468 62.1732C81.1097 62.5549 81.6102 62.7551 82.2484 62.7738C83.093 62.7864 83.7969 62.6112 84.36 62.2483L84.7354 60.3713H82.4548L82.7551 58.7102H87.2317L86.556 63.0835ZM101.125 64.4537H98.9009L100.806 53.5203H103.021L101.125 64.4537ZM123.268 64.4537H121.128L117.609 56.8989L116.295 64.4537H114.071L115.966 53.5203H118.116L121.635 61.0846L122.949 53.5203H125.164L123.268 64.4537ZM143.684 59.7238H139.123L138.616 62.6331H143.975L143.646 64.4537H136.073L137.968 53.5203H145.523L145.195 55.3598H139.873L139.432 57.8937H144.012L143.684 59.7238Z" fill="white"/>
</svg>
